<?xml version="1.0" encoding="utf-8"?>
<!-- Generator: Adobe Illustrator 14.0.0, SVG Export Plug-In . SVG Version: 6.00 Build 43363)  -->
<!DOCTYPE svg PUBLIC "-//W3C//DTD SVG 1.1//EN" "http://www.w3.org/Graphics/SVG/1.1/DTD/svg11.dtd">
<svg version="1.1" id="rolex" xmlns="http://www.w3.org/2000/svg" xmlns:xlink="http://www.w3.org/1999/xlink" x="0px" y="0px"
	 width="120px" height="110px" viewBox="0 0 400 300" enable-background="new 0 0 400 300" xml:space="preserve" >
<path id="crown" fill="white" d="M159.969,88.722c0.511,0,1.03-0.083,1.511-0.195l17.312,58.832h0.016
	c1.923,6.563,11.482,11.551,22.988,11.551c11.515,0,21.055-4.984,22.998-11.551h0.008l17.298-58.793
	c0.404,0.083,0.855,0.158,1.321,0.158c3.366,0,6.084-2.718,6.084-6.098c0-3.342-2.712-6.077-6.084-6.077
	c-3.35,0-6.084,2.727-6.084,6.077c0,2.441,1.412,4.514,3.472,5.49l-20.056,42.981l3.215-57.914c0.046,0,0.091,0,0.137,0
	c3.351,0,6.092-2.718,6.092-6.077c0-3.356-2.734-6.099-6.092-6.099c-3.344,0-6.095,2.742-6.095,6.099
	c0,2.772,1.87,5.093,4.396,5.835l-13.33,56.602l-6.438-62.383c2.961-0.435,5.214-2.967,5.214-6.032c0-3.35-2.711-6.083-6.077-6.083
	c-3.371,0-6.091,2.727-6.091,6.083c0,3.065,2.283,5.619,5.234,6.032l-6.415,62.263l-13.315-56.488
	c2.561-0.72,4.455-3.05,4.455-5.835c0-3.357-2.733-6.098-6.083-6.098c-3.373,0-6.1,2.741-6.1,6.098c0,3.35,2.728,6.077,6.1,6.077
	c0.028,0,0.045,0,0.083,0l3.222,57.882l-20.098-43.027c1.968-1.014,3.297-3.05,3.297-5.423c0-3.342-2.712-6.076-6.093-6.076
	c-3.356,0-6.076,2.727-6.076,6.076C153.894,86.001,156.606,88.722,159.969,88.722z M201.683,142.4
	c10.529,0,19.054,2.697,19.054,6.001c0,3.32-8.524,5.994-19.054,5.994s-19.063-2.666-19.063-5.994
	C182.623,145.097,191.154,142.4,201.683,142.4z"/>
<path id="r" fill="white" d="M92.9,239.475L92.9,239.475L92.9,239.475L92.9,239.475l-3.845-11.184
	c-1.811-4.965-3.08-7.219-5.889-9.777c-1.854-1.66-4.438-2.441-6.361-2.998c7.156-1.133,12.609-7.348,12.609-14.811
	c0-8.283-6.707-15.006-14.99-15.006c-0.083,0-0.174,0.016-0.285,0.016v-0.016H51.577H37.975h-8.181v4.379h8.181v49.428h-8.314v4.402
	h21.796h8.48v-4.402h-8.36v-23.748h6.489c0.211,0.006,0.405,0.014,0.609,0.027h1.313c2.073,0.074,3.875,0.375,5.483,0.834
	c1.503,0.391,3.102,0.9,4.153,1.584c1.428,0.934,2.958,2.225,4.305,4.521c0.345,0.615,0.66,1.23,0.961,1.848
	c2.471,4.656,3.957,11.107,5.603,19.295h10.004v0.016h9.005v-4.408H92.9L92.9,239.475z M65.779,211.342H51.606v-21.293h14.165
	c6.099,0.232,10.965,4.49,10.965,10.643S71.871,211.07,65.779,211.342z"/>
<path id="o" fill="white" d="M134.473,183.582c-17.456,0-31.605,14.174-31.605,31.17c0,17.018,14.149,31.176,31.605,31.176
	c17.439,0,31.581-14.164,31.581-31.176C166.053,197.756,151.911,183.582,134.473,183.582z M147.601,232.764
	c-0.977,1.463-2.202,2.77-3.637,3.82c-2.336,1.869-5.001,2.951-7.833,3.051c-0.532,0.061-1.098,0.119-1.658,0.119
	c-0.586,0-1.136-0.061-1.689-0.119c-2.832-0.105-5.476-1.18-7.817-3.051c-1.436-1.053-2.666-2.352-3.636-3.82
	c-3.281-4.537-5.34-10.893-5.34-17.951c0-6.639,1.833-12.664,4.754-17.088c1.646-2.941,4.221-5.271,7.375-6.639
	c0.023-0.01,0.045-0.023,0.075-0.039c0.145-0.061,0.293-0.119,0.458-0.174c0.414-0.172,0.841-0.314,1.278-0.449
	c1.434-0.42,2.966-0.654,4.544-0.654c1.576,0,3.102,0.234,4.535,0.654c0.444,0.135,0.864,0.271,1.294,0.443
	c0.143,0.068,0.293,0.129,0.457,0.18c0.016,0.029,0.046,0.029,0.074,0.039c3.125,1.367,5.739,3.695,7.361,6.639
	c2.943,4.455,4.754,10.471,4.754,17.088C152.941,221.871,150.891,228.232,147.601,232.764z"/>
<path id="l" fill="white" d="M228.638,221.246L228.638,221.246h-4.369v8.787c-0.138,5.266-4.426,9.5-9.721,9.5
	c-0.021,0-0.046-0.008-0.06-0.008v0.016H201.09h-5.069v-49.373h8.465v-4.393h-8.465h-0.932h-21.127v4.393h8.473v49.377h-8.473v4.4
	h50.307h3.726h0.345h0.3v-0.016h0.047v-14.361h-0.047V221.246L228.638,221.246z"/>
<path id="e" fill="white" d="M291.279,229.969c-0.044,5.318-4.379,9.619-9.718,9.619c-0.031,0-0.038,0-0.055,0h-15.689h-5.88
	h-0.174v-23.732v-0.781h4.409c0.046,0,0.074,0,0.113,0h2.456c3.937,0.047,7.128,3.246,7.128,7.184c0,0.066,0,0.117-0.009,0.156
	h0.009v2.291v0.926h4.001v-0.59v-9.967v-0.037v-3.566v-0.016v-9.975v-0.195h-3.994v2.824h-0.009c0,0.053,0.009,0.113,0.009,0.158
	c0,3.941-3.191,6.752-7.136,6.797h-2.568h-2.74h-1.668v-20.865h0.173h12.535c0.061,0,0.129,0,0.188,0h8.938
	c5.323,0.031,9.629,4.318,9.674,9.613v5.986h4.431v-5.641v-14.34v-0.023h-0.309v-0.006h-0.053h-0.295h-13.541h-43.638v4.4h8.302
	v49.385h-8.302v4.385v0.016h43.638h9.772h3.77h0.294h0.054h0.314v-14.346v-6.594h-4.432L291.279,229.969L291.279,229.969z"/>
<path id="x" fill="white" d="M370.847,239.746v0.006l0,0c-4.223-0.104-5.215-1.404-8.474-5.158l-19.251-23.961l12.738-15.207
	v0.008c3.418-3.912,4.342-5.266,8.741-5.332h2.72h0.606v-4.252h-0.606h-12.513h-0.587h-9.186h-0.585v4.252h0.585h4.567v0.014
	c0.014,0,0.014,0,0.014,0c1.112,0,2.005,0.879,2.005,1.982c0,0.445-0.144,0.834-0.369,1.164l-11.295,13.443l-8.863-11.031
	l-1.848-2.344c-0.277-0.338-0.465-0.773-0.465-1.238c0-1.098,0.894-1.984,1.991-2h5.053v-4.248h-8.976H313.73h-7.263v4.248h1.397
	c3.741,0.176,4.822,1.449,7.766,4.832l17.042,21.217l-15.345,18.311v-0.039c-3.431,3.93-4.363,5.25-8.771,5.334h-2.681h-0.9v4.236
	h0.9H320.4h0.909h7.855h0.915v-4.236h-0.915h-5.266h-0.007c-1.097,0-2.005-0.885-2.005-2.014c0-0.465,0.174-0.893,0.458-1.232
	l13.625-16.273l11.319,14.113l1.729,2.146c0.27,0.354,0.458,0.781,0.458,1.248c0,1.104-0.9,2.014-2.014,2.014c0,0,0,0-0.016,0
	h-5.429v4.234h0.045h31.61v-4.234h-2.826V239.746z"/>
</svg>
